<?xml version="1.0" standalone="no"?>
<!DOCTYPE svg PUBLIC "-//W3C//DTD SVG 20010904//EN"
 "http://www.w3.org/TR/2001/REC-SVG-20010904/DTD/svg10.dtd">
<svg version="1.0" xmlns="http://www.w3.org/2000/svg"
 width="588.000000pt" height="730.000000pt" viewBox="0 0 588.000000 730.000000"
 preserveAspectRatio="xMidYMid meet">

<g transform="translate(0.000000,730.000000) scale(0.100000,-0.100000)"
fill="#000000" stroke="none">
<path d="M2855 7204 c-11 -3 -69 -14 -130 -25 -119 -22 -436 -83 -525 -100
-131 -26 -165 -36 -162 -49 3 -11 0 -11 -13 0 -13 11 -29 11 -88 0 -40 -6 -79
-14 -87 -17 -8 -3 -26 -7 -40 -9 -208 -37 -596 -111 -760 -145 -52 -11 -111
-22 -130 -24 -19 -3 -71 -13 -115 -21 -44 -9 -114 -22 -155 -30 -41 -9 -94
-18 -118 -21 -23 -3 -42 -8 -42 -12 0 -3 -23 -7 -52 -9 -29 -2 -58 -8 -65 -14
-8 -6 -13 -34 -13 -75 l0 -64 38 5 c20 3 57 10 82 15 25 5 86 17 135 26 50 9
110 21 135 26 25 4 66 11 93 15 26 3 50 10 53 15 3 5 10 7 15 4 5 -4 69 5 141
19 152 29 148 29 518 97 151 27 320 58 375 69 98 18 138 25 415 76 74 14 149
29 166 34 17 6 42 10 56 10 14 0 81 12 149 26 173 36 242 34 489 -15 240 -47
229 -45 345 -66 77 -14 285 -52 600 -111 44 -8 127 -24 185 -34 58 -11 143
-27 190 -35 47 -9 110 -21 140 -26 120 -21 151 -27 320 -58 96 -18 229 -43
295 -56 66 -13 139 -27 163 -30 l42 -7 0 71 c0 65 -2 71 -22 75 -13 3 -75 15
-138 26 -63 12 -171 33 -240 46 -69 14 -133 23 -143 20 -11 -2 -16 -2 -13 2 7
6 -137 36 -414 86 -74 13 -243 45 -375 71 -289 56 -338 64 -347 59 -3 -2 -8
-1 -10 4 -1 4 -73 21 -158 36 -85 16 -256 48 -380 73 -210 41 -358 59 -405 47z"/>
<path d="M2830 6870 c-52 -10 -207 -36 -345 -59 -137 -23 -284 -48 -325 -55
-41 -8 -104 -19 -140 -25 -36 -6 -132 -22 -215 -36 -82 -14 -175 -30 -205 -35
-30 -5 -82 -14 -115 -19 -33 -6 -73 -13 -90 -15 -16 -3 -97 -17 -180 -31 -82
-14 -296 -50 -475 -81 -179 -30 -338 -57 -354 -60 l-28 -6 6 -372 c3 -204 8
-558 12 -786 12 -896 34 -1170 135 -1630 277 -1265 915 -2309 1860 -3046 187
-147 529 -374 562 -374 16 0 254 151 399 255 186 131 362 277 572 475 65 61
286 302 363 395 693 839 1132 1990 1202 3145 12 197 37 1927 28 1936 -3 3 -70
17 -149 30 -267 45 -1153 195 -1233 209 -211 37 -341 59 -735 125 -234 39
-432 72 -440 74 -8 2 -58 -5 -110 -14z m645 -420 c702 -58 1354 -220 1810
-450 l110 -55 -3 -345 c-5 -568 -21 -1145 -37 -1306 -63 -642 -221 -1230 -480
-1794 -389 -848 -1020 -1561 -1811 -2050 l-132 -81 -91 55 c-643 390 -1173
913 -1568 1546 -429 688 -700 1528 -773 2395 -13 166 -43 1566 -33 1576 4 4
58 32 118 62 501 250 1202 413 1955 457 182 11 762 4 935 -10z"/>
<path d="M2870 6252 c0 -10 -7 -28 -16 -41 -20 -28 -10 -42 49 -66 34 -14 38
-14 43 0 4 9 -9 39 -30 70 -39 59 -46 65 -46 37z"/>
<path d="M2987 6227 c-8 -25 -11 -50 -6 -62 22 -58 -16 -68 -111 -30 -58 23
-76 26 -124 21 -64 -8 -72 -21 -20 -31 47 -8 36 -19 -18 -17 -24 1 -56 -5 -73
-13 l-30 -13 48 -1 c65 -1 165 -30 146 -42 -11 -6 -9 -9 8 -9 34 0 37 -18 4
-25 -16 -3 -55 -22 -88 -42 -79 -48 -235 -111 -295 -119 -58 -8 -95 -35 -132
-98 -29 -50 -35 -116 -11 -139 15 -15 46 -11 153 19 16 5 22 2 22 -9 0 -9 -18
-19 -47 -27 -62 -17 -77 -28 -62 -46 15 -18 97 -17 129 1 33 19 112 19 185 -1
33 -9 96 -19 140 -23 76 -6 80 -7 83 -32 3 -24 -39 -132 -91 -235 -27 -52
-154 -214 -169 -214 -4 0 -32 -33 -62 -73 -56 -76 -85 -101 -131 -113 -29 -7
-115 -63 -156 -101 l-26 -24 -114 77 c-63 42 -134 96 -159 119 -84 79 -169
102 -227 59 -40 -29 -156 -209 -228 -354 -15 -30 -56 -102 -91 -160 -42 -69
-65 -120 -70 -150 -3 -25 -15 -64 -25 -86 -22 -48 -44 -157 -35 -179 7 -19 34
-19 81 1 60 25 115 65 131 96 14 27 14 33 -5 69 -21 39 -21 40 -2 77 10 20 22
56 26 80 7 43 35 85 141 210 29 33 62 79 75 101 18 33 28 41 51 41 23 0 37
-13 82 -74 30 -40 83 -98 117 -130 65 -58 73 -79 21 -52 -38 20 -158 52 -240
65 -91 14 -134 -6 -188 -91 -29 -45 -31 -102 -9 -228 8 -47 22 -137 31 -200
28 -200 30 -210 52 -238 12 -15 46 -76 76 -137 83 -168 132 -206 179 -143 15
20 21 48 25 107 5 97 -6 120 -76 153 -44 21 -47 26 -53 68 -3 25 -18 71 -33
103 -20 44 -29 85 -36 170 -6 62 -13 131 -16 154 -5 35 -3 42 15 48 22 7 51
-6 95 -42 16 -13 63 -43 105 -66 42 -23 103 -66 136 -97 58 -54 89 -72 147
-84 20 -5 44 -33 101 -118 42 -62 103 -143 137 -180 77 -85 258 -237 419 -353
112 -81 175 -144 158 -161 -3 -3 -38 22 -79 57 -80 68 -184 139 -203 139 -18
0 -25 -24 -25 -86 0 -122 66 -326 155 -479 67 -115 78 -141 71 -168 -13 -55
-22 -57 -219 -57 -100 0 -211 5 -247 11 -46 8 -89 8 -145 0 -44 -5 -114 -14
-155 -19 -101 -12 -194 -56 -198 -94 -3 -23 4 -30 61 -58 38 -18 87 -34 121
-37 l58 -6 37 43 37 44 47 -14 c38 -10 55 -10 92 0 70 20 265 7 400 -26 186
-45 200 -47 226 -41 29 7 49 43 49 86 0 16 -16 69 -35 118 -44 116 -55 186
-45 298 10 109 35 182 99 295 27 47 54 103 61 125 21 67 33 67 28 -1 -3 -52
-12 -76 -55 -150 -64 -110 -93 -211 -93 -320 0 -136 54 -303 148 -458 23 -37
42 -76 42 -86 0 -41 -122 -162 -305 -302 -40 -31 -78 -70 -89 -92 -13 -23 -43
-54 -76 -76 -55 -38 -130 -112 -130 -129 0 -5 -3 -16 -6 -24 -14 -37 192 -51
276 -18 l45 17 -3 52 c-2 51 -2 52 36 71 28 14 46 33 60 64 42 89 183 214 375
331 24 15 27 22 27 74 0 43 -7 70 -29 112 -38 73 -46 113 -31 165 16 56 53 95
168 174 167 115 281 268 298 399 7 58 17 70 41 51 16 -14 14 -83 -5 -207 -9
-58 -5 -112 9 -112 5 0 9 11 9 25 0 13 9 47 20 75 11 28 20 61 20 74 0 13 6
29 14 35 23 19 39 -22 33 -84 -5 -48 -35 -122 -92 -225 -30 -55 -31 -90 -5
-121 l19 -24 1 36 c0 37 26 84 83 149 47 53 88 153 94 229 5 55 2 76 -16 115
-25 57 -25 56 -8 56 27 0 59 -79 66 -164 5 -53 14 -95 29 -121 l21 -40 0 80
c-1 44 2 105 6 136 6 51 0 92 -20 141 -5 14 6 23 58 46 117 53 202 153 233
272 18 69 16 216 -5 341 -15 96 -1 206 35 264 76 122 84 140 82 179 -2 22 -8
41 -13 43 -6 2 -25 -28 -42 -66 -18 -38 -55 -93 -83 -123 -48 -51 -50 -52 -65
-34 -38 49 -7 148 84 270 50 68 85 153 75 181 -9 22 -21 10 -69 -64 -43 -66
-165 -191 -187 -191 -7 0 -9 21 -5 66 9 91 59 190 143 282 36 40 59 72 51 72
-23 0 -140 -93 -185 -148 -108 -129 -136 -291 -81 -480 44 -153 60 -339 40
-464 -26 -154 -145 -278 -306 -319 -56 -14 -65 -7 -84 61 -38 139 -170 313
-334 439 -56 44 -120 94 -141 113 -66 55 -157 178 -200 268 -36 76 -40 95 -44
177 -5 105 5 121 55 84 15 -12 50 -25 76 -30 29 -5 70 -24 103 -47 78 -56 102
-69 109 -62 3 3 -7 19 -22 36 -15 16 -38 44 -51 61 -12 16 -38 36 -57 42 -36
13 -47 29 -20 29 26 0 78 -25 111 -53 36 -30 44 -33 44 -13 0 27 -96 103 -159
126 -51 19 -87 40 -67 40 27 0 146 -36 199 -60 73 -33 129 -38 180 -17 38 17
68 47 45 47 -8 0 -19 -5 -24 -10 -6 -6 -33 -13 -61 -17 -50 -5 -51 -5 -111 50
-38 35 -76 60 -100 67 -57 15 -132 49 -132 60 0 5 19 2 42 -6 26 -9 74 -14
128 -13 62 1 95 -3 118 -15 62 -32 56 -14 -13 43 -37 30 -62 43 -97 47 -27 4
-48 10 -48 15 0 18 72 8 121 -17 55 -27 129 -37 136 -17 2 7 -12 19 -32 27
-20 9 -50 27 -65 40 -16 13 -51 29 -79 36 -53 13 -102 50 -65 50 11 0 36 -9
57 -20 44 -24 47 -24 47 -7 0 8 -11 19 -24 25 -21 9 -55 52 -42 52 15 0 150
-72 176 -94 31 -26 50 -33 50 -18 -2 25 -91 130 -131 152 -25 14 -60 42 -78
63 -18 20 -39 37 -46 37 -15 0 -40 28 -32 36 12 13 142 -31 171 -57 47 -41 93
-60 133 -57 54 5 50 23 -9 44 -46 17 -56 25 -75 65 -22 46 -57 81 -133 132
-38 26 -58 52 -48 63 3 2 34 -8 69 -24 35 -16 82 -35 104 -42 22 -7 53 -23 68
-36 19 -16 41 -24 65 -24 l37 1 -25 19 c-62 47 -122 104 -172 163 -23 27 -52
45 -96 61 -35 12 -64 27 -65 32 -4 20 43 13 104 -16 35 -16 72 -30 81 -30 10
0 38 -7 64 -16 46 -16 94 -12 94 6 0 6 -7 10 -16 10 -8 0 -34 11 -57 24 -23
13 -58 29 -78 35 -19 6 -53 29 -74 51 -42 44 -44 62 -2 29 39 -30 82 -39 135
-29 51 9 85 0 119 -32 34 -32 41 -12 8 22 -36 37 -79 58 -152 72 -47 9 -67 19
-103 54 -25 24 -62 50 -82 59 -38 15 -51 35 -24 35 8 0 43 -9 78 -20 39 -12
92 -20 138 -20 58 0 82 -5 105 -20 31 -20 65 -27 65 -12 0 9 -86 70 -127 91
-12 6 -34 11 -49 11 -14 0 -52 15 -83 34 -31 19 -75 39 -98 45 -24 7 -43 15
-43 20 0 16 111 43 151 36 46 -8 51 4 13 34 -23 18 -41 21 -126 21 l-98 0 -43
39 c-54 50 -77 61 -123 61 -30 0 -44 7 -73 38 -20 20 -60 56 -88 79 l-51 43
-15 -43z m271 -199 c3 -15 0 -16 -27 -7 -17 6 -28 15 -25 21 9 15 48 5 52 -14z
m-304 -94 c22 -22 20 -41 -2 -21 -10 10 -26 17 -36 17 -9 0 -14 5 -11 10 9 15
31 12 49 -6z m346 1 c7 -9 11 -18 8 -21 -9 -9 -59 16 -53 26 9 15 31 12 45 -5z
m-561 -45 c-25 -34 -81 -58 -148 -66 l-46 -5 63 24 c34 14 79 36 100 50 49 34
57 33 31 -3z m195 -2 c17 -24 22 -68 8 -68 -5 0 -17 9 -27 20 -11 12 -31 20
-52 20 -38 0 -42 12 -11 34 32 22 64 20 82 -6z m434 -68 c12 0 22 -4 22 -10 0
-5 -12 -10 -27 -10 -15 0 -41 -5 -60 -12 -38 -14 -48 -8 -38 22 6 19 12 21 44
16 20 -3 46 -6 59 -6z m-988 -95 c7 -9 11 -17 9 -18 -2 -1 -19 -13 -37 -25
-42 -29 -51 -22 -29 23 18 38 37 44 57 20z m990 -30 c10 -12 9 -15 -7 -15 -10
0 -28 7 -39 15 -18 14 -18 14 7 15 15 0 32 -7 39 -15z m-431 -47 c-42 -53 -48
-58 -81 -58 -40 0 -35 12 16 39 25 13 53 32 62 42 33 37 35 18 3 -23z m-392
-5 c-9 -9 -19 -14 -23 -11 -10 10 6 28 24 28 15 0 15 -1 -1 -17z m493 -55
c-12 -10 -31 -18 -43 -18 -16 0 -12 6 19 28 41 31 63 21 24 -10z m328 30 c14
-14 16 -28 3 -28 -23 0 -62 21 -56 30 8 14 38 13 53 -2z m-293 -68 c-13 -15
-30 -20 -64 -19 l-46 0 53 18 c29 10 56 21 59 25 16 16 14 -6 -2 -24z m299
-16 c14 -14 22 -34 12 -34 -13 0 -66 23 -66 29 0 24 32 27 54 5z m14 -124 c4
-10 -3 -11 -24 -6 -39 10 -53 24 -34 36 16 10 51 -7 58 -30z m-11 -84 c35 -30
26 -42 -21 -26 -42 13 -54 29 -35 41 20 13 25 11 56 -15z m-327 -19 c0 -77
-49 -172 -144 -282 -56 -64 -53 -33 8 63 54 86 64 107 100 205 21 55 36 61 36
14z m311 -78 c27 -27 19 -34 -25 -19 -37 12 -46 24 -23 33 21 9 26 8 48 -14z
m-1 -99 c0 -15 -36 -12 -49 4 -9 11 -9 15 1 19 16 5 48 -10 48 -23z m-30 -70
c8 -5 12 -12 8 -15 -10 -10 -49 5 -43 16 8 11 16 11 35 -1z m-15 -81 c4 -6 5
-12 2 -15 -7 -7 -37 7 -37 17 0 13 27 11 35 -2z m-1461 -50 c-7 -12 -54 -12
-54 0 0 11 30 19 47 13 7 -2 10 -8 7 -13z m1442 -27 c-9 -9 -37 8 -31 18 5 8
11 7 21 -1 8 -6 12 -14 10 -17z m-26 -62 c0 -5 -4 -10 -9 -10 -6 0 -13 5 -16
10 -3 6 1 10 9 10 9 0 16 -4 16 -10z m-548 -21 c21 -5 50 -21 65 -35 l28 -25
-30 5 c-16 3 -57 11 -89 17 -44 9 -72 9 -109 0 -54 -12 -69 -8 -46 14 31 30
118 42 181 24z m-1032 -27 c0 -13 -76 -128 -90 -137 -20 -13 -20 0 1 41 34 64
63 104 77 104 6 0 12 -4 12 -8z m1555 -22 c3 -5 -1 -10 -9 -10 -9 0 -16 5 -16
10 0 6 4 10 9 10 6 0 13 -4 16 -10z m-1283 -77 c31 -35 42 -63 24 -63 -12 0
-66 67 -66 83 0 14 17 6 42 -20z m1253 7 c3 -5 2 -10 -4 -10 -5 0 -13 5 -16
10 -3 6 -2 10 4 10 5 0 13 -4 16 -10z m-945 -65 c0 -3 -17 -29 -39 -58 -21
-29 -47 -67 -57 -84 -10 -18 -22 -33 -26 -33 -13 0 51 122 80 153 24 25 42 35
42 22z m-590 -174 c-5 -11 -15 -23 -20 -26 -14 -9 -12 19 2 33 19 19 30 14 18
-7z m-266 -109 c-11 -16 -19 -22 -22 -14 -2 7 4 25 14 40 11 16 19 22 22 14 2
-7 -4 -25 -14 -40z m1678 -48 c22 -108 78 -206 176 -306 67 -68 73 -85 17 -48
-120 79 -225 247 -225 361 0 52 21 48 32 -7z m-1186 0 c58 -24 124 -67 124
-81 0 -19 -11 -16 -66 18 -27 18 -64 38 -81 46 -18 7 -33 18 -33 23 0 14 11
13 56 -6z m-243 -166 c4 -35 9 -76 12 -93 l6 -30 -20 23 c-21 24 -37 116 -26
151 11 35 22 15 28 -51z m-298 -17 c-3 -12 -11 -21 -16 -21 -10 0 -12 43 -2
54 12 12 25 -11 18 -33z m1324 -433 c80 -81 143 -150 140 -152 -7 -8 -149 100
-212 161 -126 123 -234 263 -220 287 4 6 37 -24 77 -69 39 -44 136 -146 215
-227z m1711 110 c16 -93 6 -189 -25 -254 -40 -81 -175 -199 -175 -152 0 6 25
37 55 69 86 90 108 148 113 296 3 68 8 120 12 118 5 -3 14 -37 20 -77z m-1060
-138 c0 -6 -15 -20 -34 -31 -22 -12 -40 -35 -50 -60 -9 -22 -21 -37 -26 -34
-25 16 1 103 37 124 23 14 73 14 73 1z m-1472 -114 c5 -26 -24 -19 -36 9 -7
14 -12 29 -12 32 0 12 45 -26 48 -41z m1956 -318 c-1 -35 -8 -67 -18 -83 -23
-34 -41 -33 -30 3 5 15 9 50 10 77 1 67 1 67 22 63 14 -3 17 -14 16 -60z
m-639 -241 c-8 -20 -15 -59 -15 -87 0 -58 -16 -67 -26 -14 -9 49 1 112 22 135
26 28 37 8 19 -34z m-145 -366 c0 -5 -7 -11 -15 -15 -15 -5 -20 5 -8 17 9 10
23 9 23 -2z m-550 -41 c0 -5 -4 -10 -10 -10 -5 0 -10 5 -10 10 0 6 5 10 10 10
6 0 10 -4 10 -10z m296 -10 c35 0 64 -4 64 -9 0 -15 -153 -23 -203 -10 -69 17
-60 33 14 25 34 -3 91 -6 125 -6z m-636 -15 c0 -8 -9 -15 -19 -15 -24 0 -36
16 -19 23 24 10 38 7 38 -8z m1287 -290 c-4 -8 -11 -15 -17 -15 -14 0 -13 27
3 33 16 6 21 1 14 -18z m-147 -54 c0 -11 -182 -182 -188 -177 -9 9 21 46 92
114 72 68 96 84 96 63z m-301 -257 c-6 -8 -18 -14 -27 -14 -13 0 -12 3 3 20
20 22 43 17 24 -6z m-189 -190 c0 -8 -6 -14 -14 -14 -7 0 -16 -9 -19 -20 -3
-13 -10 -18 -21 -14 -22 8 -20 17 9 48 25 27 45 27 45 0z"/>
<path d="M4245 2014 c-27 -8 -93 -19 -146 -26 -86 -10 -114 -9 -251 11 -130
19 -163 21 -222 11 -74 -12 -93 -19 -145 -58 -86 -64 -66 -182 30 -182 43 0
109 51 109 83 0 19 -1 19 -18 4 -31 -28 -75 -32 -96 -9 -40 45 21 102 108 102
45 0 216 -27 225 -36 2 -2 -13 -22 -33 -44 -20 -22 -51 -70 -68 -105 -26 -51
-39 -67 -64 -75 -33 -11 -82 -56 -72 -66 4 -3 15 -1 26 5 26 14 52 14 52 0 0
-5 -16 -44 -36 -85 -43 -87 -105 -161 -151 -180 -110 -46 -233 27 -233 138 l0
38 39 -6 c34 -6 41 -3 56 20 22 33 13 73 -21 88 -35 16 -73 0 -102 -42 -20
-30 -23 -44 -20 -102 5 -86 39 -140 117 -180 151 -79 329 14 432 228 30 63 46
84 60 84 34 0 87 27 105 54 21 34 15 40 -22 21 -33 -17 -70 -20 -79 -5 -7 12
48 134 80 176 21 28 33 33 82 39 130 15 341 84 327 106 -6 10 -4 11 -69 -7z"/>
<path d="M2145 2006 c-63 -27 -107 -110 -90 -168 21 -69 78 -111 248 -185 148
-64 179 -102 156 -189 -19 -70 -69 -108 -157 -120 -106 -14 -219 44 -241 122
-13 49 -5 64 34 64 39 0 65 22 65 55 0 49 -46 68 -98 41 -64 -33 -77 -140 -26
-222 67 -110 242 -146 375 -78 98 50 151 174 118 275 -24 72 -54 96 -205 170
-178 87 -215 128 -164 179 31 31 103 27 178 -10 57 -29 96 -64 133 -120 25
-37 33 -18 16 37 -9 26 -19 66 -22 88 -11 67 -13 70 -35 50 -21 -19 -49 -17
-115 9 -49 19 -130 20 -170 2z"/>
</g>
</svg>
